<svg id="Layer_1" data-name="Layer 1" xmlns="http://www.w3.org/2000/svg" viewBox="0 0 899 464"><defs><style>.cls-1,.cls-3{stroke:#000;stroke-miterlimit:10;}.cls-1{stroke-width:1.98px;}.cls-2,.cls-4{fill:#1d1d1b;}.cls-2{stroke:#1d1d1b;stroke-linejoin:round;stroke-width:1.42px;}.cls-3{fill:none;stroke-width:8.5px;}</style></defs><path d="M158.24,258.81c1.25,2.51,2.83,4.68,3.45,7.09,2.11,8.26,4.1,16.56,5.75,24.91,1.7,8.57,2.94,17.23,6.09,25.44.91,2.36,2,4.64,2.79,7.14-2.32-3.35-4.73-6.63-6.95-10.05-6.91-10.65-12.21-22-13.88-34.72-.73-5.6-.84-11.19.94-16.66.25-.74.56-1.45.88-2.16C157.41,259.58,157.65,259.43,158.24,258.81Z"/><path d="M151.52,309.12c-.37,3.12-.2,6.09-1.13,8.76C147.19,327,141.83,336,138.1,345c-3.82,9.15-6.14,18.14-8.28,27.78-.62,2.77-1,5.59-1.82,8.42-.15-4.53-.44-9.05-.44-13.59,0-14.14,2-28,8.52-41.12,2.87-5.76,6.35-11.16,11.63-15.35a25.93,25.93,0,0,1,2.26-1.57A7.69,7.69,0,0,1,151.52,309.12Z"/><path d="M150.43,332.56a72.31,72.31,0,0,1,2.93,7.08c2.63,8.8,2.66,17.89,2.67,27,0,10.28-.75,20.58.81,30.82a18.1,18.1,0,0,1,.36,4.74c-2.21-6.17-4.49-12.32-6.61-18.52-3.75-10.92-6-22.12-5.6-33.72a36.18,36.18,0,0,1,3.28-15c.38-.77.85-1.49,1.27-2.23Z"/><path class="cls-1" d="M258,218.83l-1.81,5.39a2.23,2.23,0,0,0,.34.06,1.13,1.13,0,0,1,1.23.89,1.18,1.18,0,0,1-.84,1.45c-1,.33-2,.65-3,.89-3.53.82-7,1.72-10.59,2.37A70.77,70.77,0,0,1,225,231.19c-3.34-.26-6.67-.67-10-1.18a119,119,0,0,1-14.69-3.3,1.71,1.71,0,0,1-.91-.45,1.55,1.55,0,0,1-.27-1.14c.1-.33.53-.58.85-.82a1.38,1.38,0,0,1,.58-.14c-.58-1.68-1.13-3.3-1.68-4.92,0-.13-.09-.25-.13-.38-.22-.8.06-1.15.86-1,1.92.47,3.82,1.08,5.76,1.49,4.27.91,8.55,1.78,12.84,2.58a51.56,51.56,0,0,0,12.21.9c3.05-.18,6.11-.5,9.14-.94a120.82,120.82,0,0,0,15-3.32l2.22-.65a1.09,1.09,0,0,1,1.18.18Z"/><path class="cls-1" d="M225.45,242.18c0-1.48,0-3,0-4.46,0-.91.3-1.2,1.22-1.2l3.3,0c.95,0,1.25.28,1.25,1.23v8.75c0,1,.26,1.28,1.26,1.28h7.58c.92,0,1.2-.26,1.15-1.17-.17-3.24-2.31-30-2.51-33.2,0-.89.22-1.31,1.1-1.47,1.57-.28,3.15-.53,4.73-.77.8-.12,1.1.13,1.2.93.43,3.44,2.8,30.38,3.24,33.82.18,1.42.06,2,2.06,1.86.41,0,.82,0,1.22,0a.92.92,0,0,1,1,1c0,1.24,0,2.47,0,3.71a.92.92,0,0,1-1,1c-.47,0-.93,0-1.39,0a.79.79,0,0,0-.85,1q.66,5.32,1.33,10.67c.16,1.28,4.24,36.69,4.39,38,.08.7-.28,1.05-1.1,1.06h-7a1.1,1.1,0,0,1-1.24-1.2c-.27-4.76-4.46-43.65-4.73-48.41,0-.75-.38-1.09-1.13-1.09H216.16c-.81,0-1.12.33-1.17,1.17-.27,4.74-.53,9.48-.81,14.22a1.07,1.07,0,0,1-1.21,1.17h-7.12c-.8,0-1.09-.41-1-1.2q.57-4.56,1.12-9.13c.21-1.7.42-3.4.65-5.1.1-.76-.19-1.12-1-1.13-.4,0-.81,0-1.22,0a1,1,0,0,1-1-1.07c0-1.21,0-2.43,0-3.65a.94.94,0,0,1,1-1c.66,0,1.32,0,2,0a1.08,1.08,0,0,0,1.19-1.08q.69-5.62,1.39-11.24c.09-.73.43-1,1.18-.91,1.63.25,3.27.53,4.9.82a1,1,0,0,1,1,1.23c-.16,2.93-.34,5.86-.51,8.79,0,.44,0,.88-.06,1.33,0,.76.27,1,1,1.06h7.93a.91.91,0,0,0,1-1C225.45,245.24,225.45,243.71,225.45,242.18Z"/><path class="cls-2" d="M208.41,194.8l-.18.41,0,.49a.87.87,0,0,1-.33.52l-.2.18-.42,0a.68.68,0,0,0-.17.27l0,0,.1,0,0-.14.17.18-.13.13-.1.23-.2.23-.29.29-.86.35-.49.55-.38.17-.8.6a1.26,1.26,0,0,1-.5.2l-.78.11-.19.05a.36.36,0,0,1-.15.27l-.22,0-1.26.36-.79.34a1.29,1.29,0,0,1-.71.09.62.62,0,0,1-.29-.15,3.43,3.43,0,0,1-.82.17l-.6.08h-.41l-.82-.08h-.22l-.49-.29a1.93,1.93,0,0,1-.8.1l0-.09a.64.64,0,0,1-.41-.24l-.36-.1-.05.24a1.48,1.48,0,0,1-.72.06,1.53,1.53,0,0,1-.46-.14,9.56,9.56,0,0,0-.91-.4q-.22,0-.21-.12v-.06l.18-.14.24,0a2.65,2.65,0,0,1,.43,0l.07,0,.2-.15c.15-.11.22-.19.23-.23l.05-.31.2-.41.05-.19,0-.12.15-.07a.49.49,0,0,1-.08-.39l.15-.58.07-.26.25-.18a.56.56,0,0,1-.07-.29l0-.32-.09-.27.13-.56.13-.69.21-.3a1,1,0,0,0,.08-.21.44.44,0,0,0-.17-.37l.05-.39,0-.18c0-.08.1-.16.26-.23l.11-.54-.25,0,0-.22.13-.51,0-.8.12-.2-.09-.31.15-1-.21-.35.31-.41,0-.14,0-.58,0-.33a1.23,1.23,0,0,1-.38-.19l-.25-.15.05-.28.37-.08.77.14.46-.12a1.45,1.45,0,0,1,.54,0l.66.09.34.18.26,0,.16.14.32.06.39.09.36.1h.35l.63.34.79.16.25.17,1.08.32.64.32.77.28.51.28.22.12-.08.2.1.14-.1.11,0,.05-.07.06h.06l.37,0,.29,0,.24.12.34.16.2.19,0,.22.08,0,.38.05c.13,0,.25.16.37.42l.15,0a1.62,1.62,0,0,1,.71.51,3.94,3.94,0,0,1,.77,1.06l-.17.11V193l.08.22.18.18a1.17,1.17,0,0,1,.1.49c-.13,0-.2.08-.22.16a.09.09,0,0,0,0,.08l.21.48A.37.37,0,0,1,208.41,194.8Zm-1.77-.53c-.12-.08-.19-.14-.21-.2a.71.71,0,0,1,0-.28l-.08,0,0-.12a.65.65,0,0,0-.06-.32l-.13-.34,0-.1-.16-.21-.42-.46a.67.67,0,0,1-.14-.15l-.15-.25-.18-.33-.21,0a2,2,0,0,1-.4-.11l-.87-.68-.41-.15-.25-.17-.21-.09V190a2.33,2.33,0,0,0-.3-.12.41.41,0,0,0-.27.08,1.75,1.75,0,0,0-.47-.29l-.28-.11a.32.32,0,0,1-.13-.07l-.09-.12-.13-.19a.89.89,0,0,1-.45,0,.6.6,0,0,1-.38-.19l-.21-.21-.6-.21-1.39-.43-.7-.06-.13-.1-.11.06-.14.18-.2-.14-.09.28a2,2,0,0,1-.23.62l0,.22a4.63,4.63,0,0,1,0,.57l0,.18-.11-.1-.07,0a1.41,1.41,0,0,0,.06.67l-.05.28-.13-.05a.26.26,0,0,1-.19.06l-.1,0-.07.19.1.21a.91.91,0,0,1,.26.19.34.34,0,0,1,0,.21c-.15,0-.23.1-.25.18s0,.08,0,.1l.12.52-.37,1.76,0,.26-.19.49.07.09-.11.36-.05.55a.57.57,0,0,1-.12.28,2.08,2.08,0,0,1-.36.17v.3l.31.27-.05.24-.25,1.19c0,.07,0,.16,0,.28l0,.37a.43.43,0,0,1,0,.22s0,.1-.11.2l-.18,0q-.19,0-.39.27a7.27,7.27,0,0,0,1,.29l1.33.21.45.12,1.57-.16.23,0,1.18-.23.81-.17.33-.07.25-.15.79-.14.66-.46.24-.06.15-.12.18-.34.45-.16.29-.29.51-.43.12-.22a1.07,1.07,0,0,0,.41,0,.14.14,0,0,0,.11-.13c0-.09-.06-.18-.22-.24a2.1,2.1,0,0,0,.6-.66,4.82,4.82,0,0,0,.43-1.08A4.55,4.55,0,0,1,206.64,194.27Z"/><path class="cls-2" d="M216.39,190.36l-.08.31-.1.32-.24.32v1.06a1.79,1.79,0,0,1-.31.66l0,.18.14.07-.06.31-.06.83a.79.79,0,0,1-.08.33.89.89,0,0,1-.22.23l.12.25-.05.29,0,.27-.26.33.07.27a1.49,1.49,0,0,1,.06.3l-.12.54-.07.6-.2.46v.08a.3.3,0,0,0,.13.27l0,.36v.23l0,.43,0,.16-.26.54.18.12-.09.15,0,.57-.15.94v.66a2.92,2.92,0,0,1-1.35.67l-.12,0,0,.11-.37,0-.14-.27a1.25,1.25,0,0,0,.25-.52l0-.23.37-.85,0-.3,0-.35.46,0,0-.08a.65.65,0,0,0-.07-.28h-.24l0,0-.06,0,.08-.32.07-.45.16-.73,0-.4.21-.25a.77.77,0,0,1-.18-.29.88.88,0,0,1,0-.36,1.18,1.18,0,0,1,.21-.53l-.13-.18,0-.29.13-1a.28.28,0,0,0,0-.13l0-.21v-.21a.35.35,0,0,0,.16-.26l-.16-.24.1-.15V194l.16-.35v0a.55.55,0,0,0-.16-.38V193l.05-.89.1-.36-.11-.22.06-.32.07-.58a.35.35,0,0,1,.32-.15l.53,0c.08,0,.2-.12.36-.35l.36-.06.35-.09.14.06A1.27,1.27,0,0,1,216.39,190.36Z"/><path class="cls-2" d="M234.56,191.59l-.18.14-.27.43-.81.29-.38.23a.52.52,0,0,1-.24,0h0l-.58-.11-1.36-.08-.95-.13-.9,0-.35-.07-.14,0-.13.47.05.25v.41l-.12.47v.37l-.05.31.06.23a.58.58,0,0,0-.31.07s-.07.14-.09.29c.23,0,.34.1.36.19l-.06.73v.47a.94.94,0,0,1-.41.64,1,1,0,0,0,.09.15.19.19,0,0,0,.12.09.58.58,0,0,0,.18,0l.05.13a.47.47,0,0,0-.18.15,1,1,0,0,0-.07.27l.23.28v.93a.43.43,0,0,1-.15.31l.09.24,0,.27.07.38-.05.29v.65c-.26.1-.39.25-.39.44s.11.31.35.45l.1,1.69-.15.12-.18.08-.55.44-.19,0h-.14l-.13.14a.41.41,0,0,0-.19-.08l-.12,0-.11-.27,0-.1s0,0,0-.06l.1-.45-.07-.54.1-.78.09-1.16.13-.86v-.23l.2-.24-.23-.93.12-.64,0-.85,0-.57,0,0a2.54,2.54,0,0,1,.21-.7l-.07-.23a2.94,2.94,0,0,1-.2-.77v0l0-.29-.11-.52,0-.29-.11-.74,0-.25.33-.6c.14-.08.21-.16.21-.23a.39.39,0,0,0,0-.16l-.56-.13h-.18l-.22,0-.44-.19-.91.05-1.38-.17-1.49,0-.24-.05a.69.69,0,0,1-.46.28h-.06l-.29,0-.29-.06a.94.94,0,0,1,.09-.42.8.8,0,0,1,.24-.26l.76-.57a2.35,2.35,0,0,1,.88-.11h.27c.08.2.18.3.33.3a.73.73,0,0,0,.47-.22l.46.06.87.31.75,0,.58.16,1.17.09.48.29.23,0,0-.08.25,0c.42,0,.68.08.78.1a.65.65,0,0,1,.32.18l.35.09.18-.13h.33l.44-.17.75,0,.49-.09a1.52,1.52,0,0,0,.51.12,4.22,4.22,0,0,0,1.9-.4l.12.06Z"/><path class="cls-2" d="M250.61,202.09a.3.3,0,0,1,0,.12l-.35.38-.34.64-.33,0-.2.07,0-.18-.15-.23v-.21l-.05-.18a1.44,1.44,0,0,1-.23-.47l-.16,0-.1-.21-.44-.64-.1-.34-.62-.82a1,1,0,0,1-.14-.4s0-.05,0-.07a.34.34,0,0,0,0-.09.7.7,0,0,1-.31-.22,3.18,3.18,0,0,1-.55-.92l-.37-.12c0,.31-.12.47-.29.49h0l-1.07-.06-.36.06h-.28l-1.4.36-.85.07-.43.17-.37-.08-.28,0a.94.94,0,0,1-.19.25.44.44,0,0,1-.22.07h-.06l-.89,0-.32.12-.43.07c-.14.05-.27.3-.4.74l-.13.41L238,201a7.13,7.13,0,0,1-.57,1.54v.21l-.13.24-.4,1.3c0,.12-.16.23-.41.32l0,.16-.33.06a1.13,1.13,0,0,1-.64-.14l.31-.73.24-.39.18-.39.11-.24.12-.21v-.08q.41-.1.36-.42l0-.24.27-.41.31-1,.21-.38.2-.65.26-.67.3-.71.37-.44a.14.14,0,0,0,0-.11.21.21,0,0,0-.12-.16,2.11,2.11,0,0,0,.23-.25A1,1,0,0,0,239,197l-.15-.18.1-.21.1-.49a1,1,0,0,1,.22-.28l0-.1.3-1.21.24-1a2.14,2.14,0,0,1,.37-.69l-.11-.21,0-.28a1.89,1.89,0,0,1,.06-.41.39.39,0,0,1,.17-.19,2.45,2.45,0,0,1,.34-.13l0-.16-.14-.29-.06-.16a.22.22,0,0,1,.1-.22l.62-.53.1-.33a.76.76,0,0,1,.53-.35l.17.39h.12l0,.11.18.28.33.34.46.63.26.53.31.42-.24.11a.25.25,0,0,0,.11.17c.26.11.4.23.41.35v.18l.26.22.33.42.17.22,0,.08-.06.2.07.19.16.18.32.2.44.66.21.29,0,.24c.29.19.44.35.46.47a1.2,1.2,0,0,1,0,.14l.23.18.54.7.12.14a1.55,1.55,0,0,0,.14.2,1.67,1.67,0,0,1,.14.19,1.62,1.62,0,0,1,.24.32,2.38,2.38,0,0,1,.07.27c.24.09.38.2.4.35a.05.05,0,0,1,0,0v.44s0,0,.06.13l.44.16.15.17.08.18a.63.63,0,0,0,.37.26l0,.23.38.3.4.51.19.18a1.33,1.33,0,0,1,.23.3A.91.91,0,0,1,250.61,202.09Zm-4.74-4.63-.1-.07,0-.07-.05-.1-.2,0a1.72,1.72,0,0,1-.28-.74l-.05-.2-.39-.05-.6-.89-.14,0-.75-1.13,0-.24-.09-.24-.5-.18-.9-1.34a1.7,1.7,0,0,0-.52-.4l-.11.1-.08.43-.08,0a2.46,2.46,0,0,1-.12.54,1.66,1.66,0,0,1-.21.31.73.73,0,0,0-.23.5V194l-.33,1q0,.19-.09.33l-.06.18a.66.66,0,0,1-.06.12l-.09.13-.06.22a.79.79,0,0,1-.1.26.43.43,0,0,1-.21.08v.24a2,2,0,0,1-.08.76,1.12,1.12,0,0,1-.37.5l.22.25a.26.26,0,0,0-.17.1.42.42,0,0,0-.08.21l0,.26h.18l.34.06.25-.08.24.06,0-.09.18,0,1.3-.08.81-.16.35.1a.48.48,0,0,1,.09-.1l.21-.06.55-.13.27-.07,0,.1.09,0c.06,0,.12-.07.2-.19l.26-.05.79-.17.33-.08a.77.77,0,0,0,.17-.11A1.3,1.3,0,0,0,245.87,197.46Z"/><path class="cls-2" d="M262.55,186.4a1.33,1.33,0,0,1-.07.8l-.3.67-.25.9-.28.28-.15,1-.12.18-.15.37-.21.21a.36.36,0,0,0-.08.27l.05.26-.18.46-.16.54-.14.16-.24.86a1.69,1.69,0,0,1-.43.63l-.18.18.21.28-.1.22-.26.54-.13.41-.13.17.06.39a1.33,1.33,0,0,1,0,.43,1,1,0,0,1-.19.35.67.67,0,0,0,.17.25.83.83,0,0,0,.25.12l.15,1h-.14l-.12.14.17.5h.17l.24.9-.2.1,0,.17c.22.09.34.2.36.32a.52.52,0,0,1,0,.19l-.2,0-.2.05-.22.1-.47.26a1.58,1.58,0,0,1-.4.18.5.5,0,0,1-.44-.16v-.25l0-.75,0-.5v-.07l-.21-.72a.91.91,0,0,1,.09-.32l0-.17-.07-.05-.26,0V198l.12-.26v-.23l-.1-.38,0-.31.16,0a.72.72,0,0,0-.1-.28.5.5,0,0,0-.2-.16l.1-.11-.14-.2-.57-.28-.56-.47a1.12,1.12,0,0,0-.41,0c-.06-.28-.14-.46-.24-.52l-.84-.5-.14-.55a.3.3,0,0,0-.13-.2.37.37,0,0,0-.22-.05l-.23.09a.71.71,0,0,0-.17-.34,1.2,1.2,0,0,0-.43-.18l-.12.09-.33-.25-1-.71-.42-.37-.22-.17c.19-.06.27-.15.25-.26a.28.28,0,0,0-.12-.16.41.41,0,0,0-.22,0l-.24.09a2.26,2.26,0,0,1-.88-1.12.71.71,0,0,1,0-.38.49.49,0,0,1,.14-.28l.54-.41.43-.36.13,0h.14l.16-.06.13.1,0,.47.07.15,0,.17.51.38.08.19,0,.35.38.19,0,.32a1.2,1.2,0,0,0,0,.27c0,.05.07.11.16.19l.39-.16a.58.58,0,0,1,.59.11l.39.45.27.28.11.18-.12.14c.19.19.35.28.45.26l.07,0,.09,0c.32.28.57.48.75.61a5.86,5.86,0,0,0,.77.45l-.12.11a.84.84,0,0,0,.46.36l.08-.12.69.44c.11.32.27.45.48.41a.48.48,0,0,0,.24-.16l.2-.26.16-.21.43-1,.18-.32.33-1,.36-.8.06-.54.13-.47,0-.61.27-.69,0-.21.52,0a.55.55,0,0,0-.14-.27.52.52,0,0,0-.31,0l0-.21a1.21,1.21,0,0,1,.2-.6l.35-.34a2.57,2.57,0,0,1,.81-.64Z"/><path d="M318.19,123.66a2.89,2.89,0,0,0,1.44-3.62,2.09,2.09,0,0,0-.19-.4,1.39,1.39,0,0,1,.44-.35,1.12,1.12,0,0,0,.36-.39,7.9,7.9,0,0,0,.53-.88,5.59,5.59,0,0,0,.09-4.36,5.07,5.07,0,0,0-4.82-3,2.23,2.23,0,0,0-.13-.44,2.87,2.87,0,0,0-3.47-1.76l-.39.15a10.82,10.82,0,0,0-5.14,4.35,8.46,8.46,0,0,0-1.08,2.91c-.08.52-.11,1-.14,1.52a3.15,3.15,0,0,1,.23-.41,13.34,13.34,0,0,1,1.35-1.9,11,11,0,0,1,1.75-1.66,18.28,18.28,0,0,1,2.07-1.28.07.07,0,0,1,.08.11c-.59.46-1.15.94-1.72,1.42a8.59,8.59,0,0,0-1.54,1.59,13.57,13.57,0,0,0-1,1.79,9.42,9.42,0,0,1,1.63-1.23,17.78,17.78,0,0,1,5-1.91.12.12,0,0,1,.09.22,25,25,0,0,0-4.65,2.1,7.69,7.69,0,0,0-1.64,1.42,4,4,0,0,0-.44.66l0,0a20.24,20.24,0,0,1,2.57-1.13,21.75,21.75,0,0,1,5.45-1.29c.06,0,.08.08,0,.1a52.18,52.18,0,0,0-5.08,1.7,16.61,16.61,0,0,0-2.41,1.24l-.16.11a10,10,0,0,0,2.38.15,15.9,15.9,0,0,0,4.45-1,.06.06,0,0,1,.06.11,9.47,9.47,0,0,1-4.45,1.58,13.2,13.2,0,0,1-3.14,0l.71.4a13.87,13.87,0,0,0,2,1,5.82,5.82,0,0,0,2.41.36,7.42,7.42,0,0,0,1.15-.17,8.18,8.18,0,0,1,1.1-.2,0,0,0,0,1,0,.07,3.64,3.64,0,0,1-2.17.85,6.7,6.7,0,0,1-2.44-.15,12.43,12.43,0,0,1-2.33-.89l-.38-.18a4.64,4.64,0,0,0,.56.74,9.06,9.06,0,0,0,3.15,2.06,10.71,10.71,0,0,0,7.28.06Z"/><path d="M317.33,109.35a5,5,0,0,1,3.25,1.08,6.32,6.32,0,0,1,1.71,7.57c-.08.15-1.07,1.73-1.11,1.7a2.43,2.43,0,0,0,1.14.63,2.3,2.3,0,0,0,2.62-1,2.91,2.91,0,0,0,.21-1.43,6.21,6.21,0,0,0-.3-1.14,4.24,4.24,0,0,0,1-1.06,3.85,3.85,0,0,0,.59-1.49,4.75,4.75,0,0,0-2-4.45,5.85,5.85,0,0,0-.79-.4c-.51-.22-1.17-.5-1.67-.16,0-.14-.08-.3-.13-.44a2.37,2.37,0,0,0-3.05-1.38A2.25,2.25,0,0,0,317.33,109.35Zm6.73,6.4a.76.76,0,0,1,.21.08l.09.06h0l.06.06.05.07a.28.28,0,0,1,0,.12v.07a.16.16,0,0,1,0,.09l0,0a.26.26,0,0,1-.09,0l-.06,0a.16.16,0,0,1-.1,0,.12.12,0,0,1-.08,0l-.08-.06.05,0-.08,0-.11-.05.06,0-.12-.05-.05,0a.5.5,0,0,1-.05-.13V116a.16.16,0,0,1,0-.09.27.27,0,0,1,.07-.08l.1,0A.17.17,0,0,1,324.06,115.75Zm.2-1.62h.2l.07,0h0l.19.07a.28.28,0,0,1,.13.15.21.21,0,0,1,0,.19.16.16,0,0,1-.06.08.24.24,0,0,1-.08.06h-.1l-.09,0h0l-.15,0-.1,0,0,0-.07,0a.2.2,0,0,1-.12-.13.25.25,0,0,1,0-.12.2.2,0,0,1,0-.08l0,0,.08,0Zm.3-1.73a.57.57,0,0,1,.18,0,.14.14,0,0,1,.16.11.15.15,0,0,1-.09.18l-.11,0-.11,0-.19.09-.07,0a.17.17,0,0,1-.25,0,.18.18,0,0,1,0-.14.14.14,0,0,1,.07-.11,1.68,1.68,0,0,1,.3-.15Zm-.88-1.53a.13.13,0,0,1,.09.11.2.2,0,0,1,0,.15s0,0-.05.05l-.14.13-.06,0-.11,0-.13.06a.17.17,0,0,1-.19,0,.18.18,0,0,1,0-.2l.1-.11a.6.6,0,0,1,.08-.08l.07,0a1,1,0,0,1,.17-.1l.06,0A.2.2,0,0,1,323.68,110.87Zm-1.2-.91a.23.23,0,0,1,.08.09.14.14,0,0,1,0,.09v0s0,0,0,.08l0,0-.1.17a.32.32,0,0,1-.08.09.11.11,0,0,1-.08,0,.14.14,0,0,1-.09,0,.19.19,0,0,1-.08,0l-.07-.06a.28.28,0,0,1,0-.12.22.22,0,0,1,0-.17l.13-.14,0,0s0,0,0,0l0,0h.08A.17.17,0,0,1,322.48,110Z"/><path d="M306.22,108a10.82,10.82,0,0,1,3.15-3.67c.09-.06.21.06.14.14a14.18,14.18,0,0,0-2.71,3.68,7.33,7.33,0,0,0-.63,2.25,7.06,7.06,0,0,0,0,.92,12.48,12.48,0,0,1,2.27-2.39l.17-.1a18.69,18.69,0,0,1,2.16-1.17,7,7,0,0,1,2.48-.73c1,0,1.53.81,2.41,1.1.05-.28.26-.31.46-.47a2.17,2.17,0,0,0,.67-.91,2.06,2.06,0,0,0-.81-2.46,3.5,3.5,0,0,0-5.21-3.64h0c-.23-.17-2,1.59-2.19,1.8a12.12,12.12,0,0,0-2.47,3.91,11.69,11.69,0,0,0-.68,5.29,9.66,9.66,0,0,1,.07-1.2A7.72,7.72,0,0,1,306.22,108Zm5.93-4.77-.11,0-.08,0h0l-.06-.07a.21.21,0,0,1,0-.07h0a.33.33,0,0,1,0-.17s0,0,0,0a.28.28,0,0,1,0-.09.42.42,0,0,1,.17-.29.39.39,0,0,1,.2-.08h.13a.48.48,0,0,1,.19.09.43.43,0,0,1,.09.1.34.34,0,0,1,.06.12.32.32,0,0,1,0,.14.31.31,0,0,1,0,.19.41.41,0,0,1-.05.09l-.06.06h0l-.07,0,0,0a.28.28,0,0,1-.12,0h-.17Z"/><path d="M322.2,130.88a3.5,3.5,0,0,0,1.5-6.17,2.06,2.06,0,0,0-1-2.39,2,2,0,0,0-1.54-.15,3.35,3.35,0,0,1-.91,2.2,6.28,6.28,0,0,1-4.57,1.81,21.73,21.73,0,0,1-2.55-.09,10.86,10.86,0,0,1-1.39-.22c-.23-.05-1.15-.16-1.28-.35h0a17.23,17.23,0,0,0,1.93,1.47,15.17,15.17,0,0,0,2.5,1.21c1.83.69,4.08,1,5.86,0,.1-.07.22.08.12.15a6.44,6.44,0,0,1-5.8.42,15.14,15.14,0,0,1-3.23-1.45,11.58,11.58,0,0,0,6.66,3.62,13.5,13.5,0,0,0,1.8.13,7,7,0,0,0,1.89-.15Zm.42-3.48h0l-.05,0-.08,0a.26.26,0,0,1-.15,0,.16.16,0,0,1-.1,0,.33.33,0,0,1-.13-.07l-.07-.07a.46.46,0,0,1-.07-.14.45.45,0,0,1,0-.16v-.12a.61.61,0,0,1,.09-.2.57.57,0,0,1,.11-.11l0,0a.37.37,0,0,1,.14-.07.58.58,0,0,1,.14,0h.14a.34.34,0,0,1,.15.07l.06.06a.61.61,0,0,1,.05.12v0l.07.06a.39.39,0,0,1,.06.15.4.4,0,0,1,0,.15,2,2,0,0,1-.12.19.27.27,0,0,1-.08.07A.17.17,0,0,1,322.62,127.4Z"/><path d="M83.74,214.52c.49-12.52,3.62-24.85,7.77-36.65,8.66-24.49,22.58-45.35,42.81-61.79,14.82-12.12,31.92-22.47,50.87-26.44,16-3.15,33.06-3.09,48.25,3.48,18,7.3,30.49,21.29,36.64,39.58C272.63,143,273.32,155.19,269,165c.23-6.32-.89-12.29-2.22-18.19-2.69-11.38-7.45-22.61-15.21-31.35-11.8-13-29.52-19.66-47-19.36-24.33-.34-46.73,11-65.54,25.78a136,136,0,0,0-35.53,41c-9.16,16-16.43,33.34-19.75,51.58Z"/><path d="M83.24,231c-3-48.11,21.39-96,60.78-123.47,26.33-18.32,59.33-29.21,91.58-25.42,38.71,5.26,70,31.41,68.27,72.72A65.05,65.05,0,0,1,292,188.14a66.09,66.09,0,0,0-.74-65.76c-7.86-12.91-20.76-21.8-34.76-27.07-49.35-18.32-110.55,9.92-141.32,50C95.93,169.64,84.92,200.07,83.24,231Z"/><path d="M370.76,246.92C369.47,271.16,360,295.62,347,316c-16.28,23.69-40,42.85-67.05,52.86-18.86,6.24-45,5.65-63.42-1.73-13.58-5.54-24.59-17.48-30-30.89-2.82-9.9-3.39-23.36.9-32.84-.23,6.18.86,12,2.13,17.8a79.12,79.12,0,0,0,4.51,14.07c5.66,10.66,14.29,19.76,25.59,24.18,15.63,5.86,35.06,6.51,51.4,3.21a56.33,56.33,0,0,0,6.15-1.66c14.63-5,28-13.24,40.07-23a135.93,135.93,0,0,0,34.26-40.59c8.84-15.74,15.9-32.69,19.14-50.53Z"/><path d="M190.29,371.4c-16.67-8.28-29.59-21.57-35.39-39.11a.92.92,0,0,1,.71-1.19l3.12-.57a.9.9,0,0,1,1,.56,61.74,61.74,0,0,0,4.52,9c6.73,11.06,17.16,19.17,28.82,24.58a1.31,1.31,0,0,1,.69,1.65l-1.65,4.38A1.32,1.32,0,0,1,190.29,371.4Z"/><path d="M198.13,371.87a1.9,1.9,0,0,0,1,2.7,99.54,99.54,0,0,0,19.75,4.73c32.25,3.8,65.25-7.09,91.58-25.42,39.39-27.45,63.8-75.36,60.78-123.46h0c-1.68,31-12.69,61.38-31.93,85.71-29.91,38.95-88.54,66.71-137.12,51.44a1.9,1.9,0,0,0-2.26.9Z"/><path d="M153.45,326.94a.8.8,0,0,1-1-.58,123.24,123.24,0,0,1-2.49-26.2c.68-9.52,3.36-26.68,8-35,.72-1.3,2.11-.18,3.42.37a1.33,1.33,0,0,1,.66,1.88,35.25,35.25,0,0,0-3.35,8.57C155,290.16,154,312.16,157,325.21a.82.82,0,0,1-.56,1Z"/><path d="M167.78,266.44c-25.37,3.48-44.58-24.16-34.09-47.19a31.33,31.33,0,0,1,15.76-16.13,37.93,37.93,0,0,0-12.35,17.46c-7.26,21.65,8.14,43.62,30.68,45.86Z"/><path d="M165.47,256.26c-17.57,1.37-29.53-18.38-21.89-33.89a21.39,21.39,0,0,1,11.15-10.69A28.74,28.74,0,0,0,147,223.75c-4.62,14.18,4.24,28.61,18.47,32.51Z"/><path d="M168.75,245.42c-6.38,2.92-14.5-1.76-16.36-8.45-2.31-6.54,1.63-15.06,8.54-16.31a16.63,16.63,0,0,0-4.25,7.36c-2.21,8.24,3.69,16,12.07,17.4Z"/><path d="M131.14,240.26c-28.72,3.85-48-29.5-31.66-53.14a32.18,32.18,0,0,1,20.65-13.69,37.21,37.21,0,0,0-17.54,15.62c-12.63,22.46,3.1,49.34,28.55,51.21Z"/><path d="M131.14,230.2c-20.78,3.46-34.79-21.17-22.71-38.06a22.46,22.46,0,0,1,15.09-9.38,27.18,27.18,0,0,0-12,11.34c-8.48,15.67,2.13,33.89,19.58,36.1Z"/><path d="M133.81,218.78a11.91,11.91,0,0,1-10.94.61c-7.72-3.12-10.86-13.51-6.15-20.39a11.85,11.85,0,0,1,9.45-5.53,15.5,15.5,0,0,0-6.21,7.27c-3.69,9.35,3.93,18.48,13.85,18Z"/><path d="M116.63,281.87c-25.37,3.48-44.58-24.16-34.09-47.19A31.33,31.33,0,0,1,98.3,218.55,38,38,0,0,0,86,236c-7.26,21.66,8.14,43.63,30.68,45.87Z"/><path d="M114.32,271.69c-17.57,1.37-29.53-18.38-21.89-33.89a21.35,21.35,0,0,1,11.15-10.69,28.74,28.74,0,0,0-7.73,12.07c-4.62,14.18,4.24,28.6,18.47,32.51Z"/><path d="M117.6,260.85c-6.38,2.92-14.5-1.76-16.36-8.45-2.31-6.55,1.63-15.06,8.54-16.31a16.63,16.63,0,0,0-4.25,7.36c-2.21,8.24,3.69,16,12.07,17.4Z"/><path d="M153.58,308.16c-26.48,5.4-47.61-23.07-36.48-47.34a31.59,31.59,0,0,1,16.7-16.47,37.53,37.53,0,0,0-13.3,17.82c-7.83,22.71,9.25,45.5,33.08,46Z"/><path d="M154,298.05c-18.89,5.33-35.16-15.12-27.49-32.81a21.83,21.83,0,0,1,11.87-11.91,27.5,27.5,0,0,0-8.4,13.15c-4.53,15.93,7.63,31,24,31.57Z"/><path d="M154.33,286.8a11.85,11.85,0,0,1-10.94.61c-7.72-3.12-10.86-13.51-6.15-20.38a11.86,11.86,0,0,1,9.45-5.54,15.52,15.52,0,0,0-6.21,7.28c-3.69,9.34,3.92,18.48,13.85,18Z"/><path d="M139,335.65c-24.4,11.6-51.76-11-46.79-37.19a31.6,31.6,0,0,1,12.26-20A37.47,37.47,0,0,0,95.82,299c-2.13,23.93,19.92,41.94,43.17,36.69Z"/><path d="M136.94,325.73c-17,9.72-37.76-6.22-34.57-25.23A22,22,0,0,1,111,286.08a27.65,27.65,0,0,0-5,14.79c-.56,16.55,14.86,28.23,30.9,24.86Z"/><path d="M134.58,314.73A11.86,11.86,0,0,1,124.11,318c-8.25-1.17-13.79-10.5-10.87-18.3a11.87,11.87,0,0,1,7.84-7.65,15.5,15.5,0,0,0-4.27,8.56c-1.34,9.95,8.25,17,17.77,14.17Z"/><path d="M286.39,120.66l-.29,0c.07,0-.2-.78-.23-.84a1.78,1.78,0,0,0-.64-.64,1.71,1.71,0,0,0-1.93.17,14.92,14.92,0,0,0-1.31,1.44,9.35,9.35,0,0,1-2.11,1.38h.38a5.65,5.65,0,0,0,1.07-.22,3.31,3.31,0,0,1,2.11,0,.08.08,0,0,1-.05.16,4,4,0,0,0-1.15,0,4.53,4.53,0,0,0-1,.31,3.37,3.37,0,0,1-1,.25,8.88,8.88,0,0,1,2.41,1.14c.85.58,1.48,1.52,2.44,1.93a2.66,2.66,0,0,0,3.43-1.63,2.35,2.35,0,0,0,.13-.94A2.64,2.64,0,0,0,286.39,120.66Zm-1.61,2.17a.31.31,0,0,1,0-.61A.31.31,0,0,1,284.78,122.83Z"/><path d="M274.94,122.69c-.39-.12-.76-.26-1.15-.34a3.4,3.4,0,0,0-1.23,0,3.13,3.13,0,0,0-1.05.4c-.08,0-.15-.06-.09-.12a2.43,2.43,0,0,1,2-.57,8.06,8.06,0,0,1,1.19.23,2.61,2.61,0,0,0,1,.13l-.3-.17a2.39,2.39,0,0,0-.43-.2l-.32-.17a4.46,4.46,0,0,1-.56-.41,8.76,8.76,0,0,1-1.36-1.49,2,2,0,0,0-1.46-1,1.76,1.76,0,0,0-1.88,1.71,4.44,4.44,0,0,0-1.1.28,2.62,2.62,0,1,0,2.95,4.27,12.84,12.84,0,0,1,3.82-2.47Zm-4.51.87a.3.3,0,0,1,0-.59A.3.3,0,0,1,270.43,123.56Z"/><path d="M275.06,120.74a4.14,4.14,0,0,0,.7.48,3.62,3.62,0,0,0,.68.23,3.24,3.24,0,0,1-1-1,4.38,4.38,0,0,1-.56-1.51,3.92,3.92,0,0,1-.08-1.56.07.07,0,0,1,.14,0c.17.45.22.94.37,1.4a3.48,3.48,0,0,0,.62,1.21,2.73,2.73,0,0,0,.46.44,5.57,5.57,0,0,1-.22-1,4.91,4.91,0,0,1,.24-2.63s.08,0,.09,0a12.88,12.88,0,0,0,.28,2.39,5.6,5.6,0,0,0,.37,1c0-.06,0-.13,0-.2,0-.43,0-.86.05-1.28a12,12,0,0,1,.26-2.54s.09,0,.1,0a23.87,23.87,0,0,1,.14,2.54c0,.44.08.89.13,1.33v0a.21.21,0,0,1,0-.06,5.34,5.34,0,0,0,.42-.91,10.32,10.32,0,0,0,.42-2.4c0-.13.23-.18.25,0a7,7,0,0,1,0,2.66,5.31,5.31,0,0,1-.26.86,4.07,4.07,0,0,0,.52-.58,6.55,6.55,0,0,0,1-2.58.13.13,0,0,1,.25,0,5.31,5.31,0,0,1-.52,3,3.71,3.71,0,0,1-.83,1.1,3.25,3.25,0,0,1-.52.41,4.83,4.83,0,0,0,1.6-.72,6.12,6.12,0,0,0,2.46-5.11,1.8,1.8,0,0,0-1.74-1.59l-.27,0a6.13,6.13,0,0,0-.64-1.07,2.94,2.94,0,0,0-1-.75,3.13,3.13,0,0,0-4.14,1.82l-.27,0c-1.43,0-1.83,1.32-1.71,2.53A6,6,0,0,0,275.06,120.74Zm4.66-6.25a.14.14,0,1,1,0,.28A.14.14,0,0,1,279.72,114.49Zm-1.16-1a.14.14,0,0,1,0,.27A.14.14,0,0,1,278.56,113.52Zm-2.48.58,0,0,.09,0h.06a.11.11,0,0,1,.08,0l.07,0a.18.18,0,0,1,0,.07.24.24,0,0,1,0,.08.29.29,0,0,1,0,.09l0,.07,0,0h0l0,0h-.05a.09.09,0,0,1-.07,0h-.06l0,0a.16.16,0,0,1,0-.07v-.06A.19.19,0,0,1,276.08,114.1Zm-1.26.7a.22.22,0,0,1,0,.44A.22.22,0,0,1,274.82,114.8Z"/><path d="M283.49,126.8a6.88,6.88,0,0,0-2.88-2.85,6.76,6.76,0,0,0-1-.41c-.14,0-.74-.12-1-.2l0,0a1.14,1.14,0,0,0-.58-.06l-.29,0a.4.4,0,0,1,.2.11l.22,0a2,2,0,0,1,.72.28,3.31,3.31,0,0,1,1.08,1.06,4.24,4.24,0,0,1,.56,1.51,3.87,3.87,0,0,1,.08,1.55c0,.08-.11.06-.14,0-.17-.44-.22-.94-.36-1.4a3.68,3.68,0,0,0-.63-1.21,3.19,3.19,0,0,0-.46-.44,5.87,5.87,0,0,1,.22,1,4.87,4.87,0,0,1-.24,2.62c0,.05-.08,0-.09,0a12.69,12.69,0,0,0-.28-2.39,5.45,5.45,0,0,0-.37-1,1.27,1.27,0,0,1,0,.2c0,.43,0,.86,0,1.29A11.26,11.26,0,0,1,278,129a.05.05,0,0,1-.1,0,23.54,23.54,0,0,1-.14-2.53c0-.45-.08-.89-.13-1.33v0a.21.21,0,0,1,0,.06,4.38,4.38,0,0,0-.41.91,9.68,9.68,0,0,0-.43,2.39c0,.14-.22.19-.25,0a7,7,0,0,1,0-2.66,5.31,5.31,0,0,1,.26-.86,4.62,4.62,0,0,0-.52.57,6.5,6.5,0,0,0-.95,2.58c0,.12-.24.13-.26,0a5.26,5.26,0,0,1,.52-3,4.08,4.08,0,0,1,.83-1.11,3,3,0,0,1,1.06-.66,5.48,5.48,0,0,0-1.34.18,8.89,8.89,0,0,0-.86.32,6.68,6.68,0,0,0-2.48,2,4.53,4.53,0,0,0-1.18,3.25,2.2,2.2,0,0,0,1,1.39,2.39,2.39,0,0,0,.84.32,1.94,1.94,0,0,0,.48,0c.14,0,.35-.1.47-.07s.4.5.53.67a3.69,3.69,0,0,0,2,1.43,3.81,3.81,0,0,0,2.19-.15,3.92,3.92,0,0,0,2-2c0-.07.62.08.74.08a2.2,2.2,0,0,0,1.92-1.14,2.51,2.51,0,0,0,.17-1.79A4.21,4.21,0,0,0,283.49,126.8Zm-7.81,3.93a.15.15,0,0,1,0-.3A.15.15,0,0,1,275.68,130.73Zm.84.75a.15.15,0,0,1,0-.29A.15.15,0,1,1,276.52,131.48Zm1.29.31a.14.14,0,0,1,0-.27A.14.14,0,0,1,277.81,131.79Zm1.4-.22a.24.24,0,0,1,0-.47A.24.24,0,0,1,279.21,131.57Z"/><path d="M346.5,310.66c4.82-19.08,8.67-39.85-2-57.4-3.31-5.55-7.89-10.53-13-15.6a39.11,39.11,0,0,1,9.87,4.44C365.45,257,364,291.24,346.5,310.66Z"/><path class="cls-3" d="M319.5,341.66s46-38,35-73"/><path d="M195.06,314.28A169.51,169.51,0,0,0,276,290.51c15.05-9.12,28.78-20.54,39.16-34.73,3.09-4.45,8.35-11.17,6-16.67-1.43-2.28-5-2.56-7.69-2.61-8.35-.4-16.67,1.41-24.73,3.55a194.58,194.58,0,0,0-24.2,8.61c3.7-2.23,7.47-4.33,11.35-6.25,9.8-4.72,20.2-8.58,31-10,5.82-.57,14.48-1.83,18.43,4.08,5.77,10.14-6.5,23.65-12.59,31.16-29,32.57-74.32,50.17-117.68,46.66Z"/><path class="cls-4" d="M265.79,300.37l-3,1.34c-1.06-.1-3,3.44-2.86,2.38l12.77-115.65a1.91,1.91,0,0,1,2.09-1.72l3.1.29a1.93,1.93,0,0,1,1.73,2.1L267.88,298.65A1.92,1.92,0,0,1,265.79,300.37Z"/><path d="M292.16,105.48c-1.72-1-4.58-4.92,6.33-18.48,0,0,8,12,4.38,16.52a.62.62,0,0,1-1-.06l-1.1-1.9a.61.61,0,0,0-1.1.09h0a.61.61,0,0,1-1.15,0l-.29-.93a.61.61,0,0,0-1.19.12l-.17,1.7a.61.61,0,0,1-1,.44l-1.69-1.18a.61.61,0,0,0-1,.46l-.17,2.76A.61.61,0,0,1,292.16,105.48Z"/><path d="M285.79,137.13c1.35.85,3.54,4-5.28,14.48,0,0-6.12-9.58-3.19-13.1a.49.49,0,0,1,.8.07l.84,1.51a.48.48,0,0,0,.87-.06h0a.48.48,0,0,1,.91.05l.21.74a.48.48,0,0,0,.94-.08l.16-1.33a.48.48,0,0,1,.76-.34l1.32,1a.48.48,0,0,0,.76-.35l.18-2.17A.47.47,0,0,1,285.79,137.13Z"/><path d="M308.12,141.69c-.42,2,.47,6.71,17.83,8,0,0-3.31-14-9.1-14.47a.62.62,0,0,0-.65.79l.63,2.1a.61.61,0,0,1-.81.74h0a.61.61,0,0,0-.76.87l.49.84a.61.61,0,0,1-.9.79l-1.36-1a.62.62,0,0,0-1,.4l-.28,2a.62.62,0,0,1-1,.39l-2.13-1.76A.6.6,0,0,0,308.12,141.69Z"/><circle cx="117" cy="164.16" r="3"/><circle cx="111" cy="153.16" r="3"/><circle cx="128" cy="175.16" r="3"/><circle cx="113" cy="148.16" r="3"/><circle cx="265" cy="144.16" r="3"/><circle cx="297" cy="138.16" r="3"/><circle cx="297" cy="134.16" r="3"/><circle cx="299.5" cy="113.66" r="1.5"/><circle cx="307.5" cy="131.66" r="1.5"/><circle cx="293.5" cy="143.66" r="1.5"/><circle cx="293.5" cy="135.66" r="1.5"/><circle cx="126.5" cy="161.66" r="1.5"/><circle cx="110.5" cy="156.66" r="1.5"/><circle cx="106.5" cy="158.66" r="1.5"/><circle cx="106.5" cy="164.66" r="1.5"/><circle cx="115.5" cy="144.66" r="1.5"/><circle cx="108.5" cy="155.66" r="1.5"/><circle cx="114.5" cy="153.66" r="1.5"/><circle cx="131.5" cy="185.66" r="1.5"/><circle cx="265.5" cy="156.66" r="1.5"/><circle cx="268.5" cy="160.66" r="1.5"/><circle cx="268.5" cy="154.66" r="1.5"/><circle cx="268.5" cy="151.66" r="2.5"/><circle cx="267.5" cy="168.66" r="1.5"/><circle cx="267.5" cy="152.66" r="2.5"/><circle cx="267.5" cy="147.66" r="2.5"/><path d="M334,197.31l-.28-.2c-.57,1.78,1.27,3.73.67,5.65-.07.23-.28.49-.5.38a.41.41,0,0,1-.17-.27,21.47,21.47,0,0,1-.37-3.11c-.09-.65-.37-2.07-1-2.45-1-.59-.51,1.55-.48,1.87a15.43,15.43,0,0,1-.19,3.84c-.05.33-.27.76-.59.65s-.28-.36-.28-.59c0-.76.29-5.3-.34-5.38-1.45-.17-2.19,3.79-2.28,4.6a2.64,2.64,0,0,1-.17-2.49,9.33,9.33,0,0,0,.78-2.47c0-.25-1.16.4-1.23.46a6.93,6.93,0,0,0-.73,1.14,18.38,18.38,0,0,0-1.88,3,5.74,5.74,0,0,0,.79,6.44,2.06,2.06,0,0,0,.91.66c.58.18,1.14-.26,1.76-.2a3.34,3.34,0,0,0,2.89,2.61c2.43.31,3.17-1.42,3.9-3.16a.59.59,0,0,1,.11-.19c.17-.16.45,0,.68.05a1.52,1.52,0,0,0,1.54-.32c.75-.74.6-2.94.52-3.9a8.09,8.09,0,0,0-4-6.62Z"/><path d="M327.71,186.34l.28.2c.56-1.77-1.27-3.73-.68-5.65.07-.23.29-.49.5-.38a.39.39,0,0,1,.18.27,21.62,21.62,0,0,1,.36,3.11c.09.65.37,2.07,1,2.45,1,.59.52-1.55.49-1.87a15.43,15.43,0,0,1,.18-3.84c.05-.33.27-.76.6-.65s.27.36.28.59c0,.76-.29,5.31.34,5.38,1.44.17,2.19-3.79,2.27-4.59a2.56,2.56,0,0,1,.17,2.48,9.68,9.68,0,0,0-.77,2.47c0,.26,1.15-.39,1.22-.45a7.53,7.53,0,0,0,.74-1.15,19.08,19.08,0,0,0,1.88-3,5.77,5.77,0,0,0-.79-6.44,2.15,2.15,0,0,0-.92-.66c-.58-.18-1.13.26-1.75.2a3.35,3.35,0,0,0-2.9-2.61c-2.43-.31-3.16,1.43-3.89,3.16a.59.59,0,0,1-.11.19c-.18.16-.46,0-.69-.05a1.53,1.53,0,0,0-1.53.32c-.76.74-.61,2.94-.52,3.9a9.19,9.19,0,0,0,1.62,4.5A9.45,9.45,0,0,0,327.71,186.34Z"/><path d="M336.32,189.37l-.2.28c1.78.57,3.73-1.27,5.65-.67.23.07.49.28.38.5a.41.41,0,0,1-.27.17,21.47,21.47,0,0,1-3.11.37c-.65.08-2.07.37-2.45,1-.59,1,1.55.52,1.87.49a15.92,15.92,0,0,1,3.84.18c.33,0,.76.27.65.6s-.36.28-.59.28c-.76,0-5.3-.29-5.38.34-.17,1.44,3.79,2.19,4.59,2.28a2.61,2.61,0,0,1-2.48.17,9.33,9.33,0,0,0-2.47-.78c-.25,0,.39,1.15.46,1.22a6.38,6.38,0,0,0,1.14.74,19.08,19.08,0,0,0,3,1.88,5.75,5.75,0,0,0,6.44-.79,2.12,2.12,0,0,0,.66-.91c.18-.58-.26-1.14-.2-1.76a3.34,3.34,0,0,0,2.61-2.89c.31-2.43-1.43-3.17-3.16-3.9a.59.59,0,0,1-.19-.11c-.16-.18,0-.46.05-.68a1.52,1.52,0,0,0-.32-1.54c-.74-.76-2.94-.6-3.9-.52a8.09,8.09,0,0,0-6.62,4Z"/><path d="M325.72,194.66l.2-.29c-1.78-.56-3.73,1.27-5.65.68-.23-.07-.49-.29-.38-.5a.41.41,0,0,1,.27-.17,21.47,21.47,0,0,1,3.11-.37c.65-.09,2.07-.37,2.45-1,.59-1-1.55-.51-1.87-.48a15.43,15.43,0,0,1-3.84-.19c-.33-.05-.76-.27-.65-.59s.36-.28.59-.29c.76,0,5.3.3,5.38-.33.17-1.45-3.79-2.19-4.6-2.28a2.61,2.61,0,0,1,2.49-.17,9.71,9.71,0,0,0,2.47.78c.25,0-.4-1.16-.46-1.23a6.93,6.93,0,0,0-1.14-.73,18.38,18.38,0,0,0-3-1.88,5.74,5.74,0,0,0-6.44.79,2.06,2.06,0,0,0-.66.91c-.18.58.26,1.14.2,1.76a3.34,3.34,0,0,0-2.61,2.89c-.31,2.43,1.42,3.17,3.16,3.9a.37.37,0,0,1,.19.11c.16.17,0,.45-.05.68a1.5,1.5,0,0,0,.32,1.53c.74.76,2.94.61,3.9.53a8.09,8.09,0,0,0,6.62-4Z"/><path d="M331.24,189.58a2.93,2.93,0,0,0-2.77,2.83c-.25,2,1.43,2.54,3.25,2.38C334.93,194.52,334.39,189.58,331.24,189.58Z"/><path d="M315.09,206.45c-.13,0-.14.05,0,0l.14-.1.31-.21.61-.44c.41-.29.82-.58,1.22-.88s.73-.59,1.16-.87l1.27-.82c.25-.17.55.15.4.4-.26.42-.52.83-.79,1.24a11.62,11.62,0,0,1-1,1.28c-.33.38-.67.77-1,1.13l-.53.55-.27.27-.12.12-.07.07a1.13,1.13,0,1,1-1.25-1.71Z"/><path d="M315.47,175.71a1.16,1.16,0,0,1,.89.12,2.79,2.79,0,0,1,.42.35l.59.52,1.17,1.06a8.05,8.05,0,0,1,1.66,2.44c.11.23-.19.51-.38.29a8.77,8.77,0,0,0-2.23-1.63l-1.31-.75-.65-.37a2.34,2.34,0,0,1-.49-.33,1.2,1.2,0,0,1-.35-.81A.91.91,0,0,1,315.47,175.71Z"/><path d="M348.44,206.45c.13,0,.14.05,0,0a.71.71,0,0,1-.14-.1l-.31-.21-.62-.44-1.21-.88c-.41-.31-.73-.59-1.16-.87l-1.27-.82c-.25-.17-.55.15-.4.4.26.42.52.83.79,1.24a11.62,11.62,0,0,0,1,1.28c.33.38.67.77,1,1.13.17.19.35.37.53.55l.27.27.12.12.07.07a1.13,1.13,0,1,0,1.25-1.71Z"/><path d="M348.06,175.71a1.15,1.15,0,0,0-.89.12,2.37,2.37,0,0,0-.42.35l-.59.52c-.39.35-.79.7-1.17,1.06a7.88,7.88,0,0,0-1.66,2.44c-.11.23.19.51.38.29a8.77,8.77,0,0,1,2.23-1.63l1.31-.75.65-.37a2.34,2.34,0,0,0,.49-.33,1.2,1.2,0,0,0,.35-.81A.91.91,0,0,0,348.06,175.71Z"/><path d="M349.83,215c2.25.21,7,2.74,2.58,21.69,0,0-13.87-8.2-12.42-14.53a.69.69,0,0,1,1.05-.43l2,1.38a.68.68,0,0,0,1.06-.63h0a.68.68,0,0,1,1.18-.52l.74.8a.68.68,0,0,0,1.14-.69l-.65-1.8a.68.68,0,0,1,.75-.91l2.28.38a.69.69,0,0,0,.74-.94l-1.17-2.86A.68.68,0,0,1,349.83,215Z"/><path d="M335.3,168c-1.13-2-1.84-7.33,16.08-14.84,0,0,1.39,16.15-4.57,18.68a.68.68,0,0,1-1-.61l-.07-2.47a.68.68,0,0,0-1.12-.5h0a.67.67,0,0,1-1.1-.66l.22-1.07a.68.68,0,0,0-1.23-.53l-1.07,1.59a.68.68,0,0,1-1.17-.08l-1-2.08a.67.67,0,0,0-1.18-.06L336.46,168A.68.68,0,0,1,335.3,168Z"/><circle cx="360" cy="201.16" r="3"/><circle cx="306" cy="204.16" r="3"/><circle cx="323" cy="217.16" r="3"/><circle cx="364.5" cy="195.66" r="1.5"/><circle cx="318.5" cy="165.66" r="1.5"/><circle cx="359.5" cy="191.66" r="1.5"/><circle cx="302.5" cy="209.66" r="1.5"/><circle cx="325.5" cy="224.66" r="1.5"/><circle cx="318.5" cy="222.66" r="1.5"/><circle cx="361.5" cy="210.66" r="1.5"/><path d="M168.5,102.66c-15.23,9.44-28.35,21.94-37.36,37.5,5.21-17.18,20.46-31.82,37.36-37.5Z"/><path d="M159.5,107.66c-15.23,9.44-28.35,21.94-37.36,37.5,5.21-17.18,20.46-31.82,37.36-37.5Z"/><path d="M294.36,117.32c-10.63-14.43-24.14-26.5-40.37-34.24,17.54,3.81,33.35,17.84,40.37,34.24Z"/><path d="M288.65,108.75C278,94.32,264.52,82.25,248.29,74.51c17.54,3.81,33.35,17.84,40.36,34.24Z"/><path d="M231.48,180c-6-9.38-9.29-22.35-3.61-32.69a48.34,48.34,0,0,0,5.7-11.94c2.83-9.07,1.39-20.67-7.32-25.81-4.08-2.45-9.19-3-14.1-2.23a14.62,14.62,0,0,0-11.28,8.2,16.55,16.55,0,0,0,1.45,14.63,17.69,17.69,0,0,1-2.11-3.33c-3-6.48-1.68-13.93,3.92-18.6,6.1-5.19,16.91-5.4,23.78-1.56,10.38,5.6,12.58,19.41,9.1,29.74A45.39,45.39,0,0,1,230.74,149c-5.57,9.5-3.09,21.22.74,31Z"/><path d="M210.1,156.29c12.87-6.87,12.41,13.19.5,13-6.14-.11-9.33-6.79-9.1-12.23a11.81,11.81,0,0,1,5.39-9.16,20.65,20.65,0,0,1,8.18-3.28,20.41,20.41,0,0,0,9-4.15,10.12,10.12,0,0,0,3.5-8.06c2,7.72-5.79,13.39-12.46,15-4.52,1.4-9.91,4.68-10,9.81,0,2.44.75,5.55,2.52,7.28,4.15,4.06,10.87-.86,9.62-6.13-.69-3.18-4.66-2.65-7.18-2.07Z"/><path d="M213.53,120.71c3.34-1.26,5.47,1.65,4.24,4.78-1.32,2.91-5.19,3.37-7.86,2.19-4.07-1.57-4.87-7.14-2.69-10.59,2-3.82,6.95-5.08,10.75-3.6,6.5,1.75,8.5,8.65,6.45,14.46-2.31,7.08-9.5,11.77-16.73,11.73a24.67,24.67,0,0,1-10-2.09c9.35,1.92,20.38-.72,23.39-10.69,1-3.18.69-7.28-2.33-9.12-1.67-1-4-1.68-5.83-1.2-2.51.54-4.16,3.47-3.94,5.94.15,3.34,5.5,5.13,7.51,2.32,1.31-2.49-.1-4.47-3-4.13Z"/><path d="M234.71,177.86c-4-9.06-3.39-20.71,3.29-28.54a9,9,0,0,1,7.55-3.79c4.55,0,8.65,4.47,7.51,9-.6,2.71-3.13,5.26-6,4.83a5.79,5.79,0,0,1-3.24-1.9,6.2,6.2,0,0,0,3.29.88c3.12-.3,4.52-4.54,3-6.89a5.18,5.18,0,0,0-4.59-2.45,5.91,5.91,0,0,0-4.68,2.69,26.6,26.6,0,0,0-5.62,12.06,48.27,48.27,0,0,0-.48,14.09Z"/><path d="M192.42,132.13c-7.58-1.35-16.37-5.91-17.71-14.33a11.66,11.66,0,0,1,2-8.46c2.88-4.08,9.11-6.72,13.82-4.32,5.5,2.9,6.54,13.13-.27,14.93-5.05,1-8.17-2.54-6.07-7.26-.36,2.67.49,5.77,3.66,5.45,7.26-.09,4.1-12-2.05-10.3a9,9,0,0,0-7.83,9.57c.86,7.4,8.24,11.72,14.47,14.72Z"/><path d="M175.16,204.16c.89-13.44,3.15-27.4-3-40,10.77,9.26,9.06,28.48,3,40Z"/><path d="M168.83,191.28c0-5.85.63-12.51-2.58-17.34-1.94-2.65-6.55-2.16-8.87-.64-1.91,1.2-2.32,4.49-1.37,6.56,1.76,3,4.48,2.45,5.69-.78,0,1.61-.78,3.74-2.63,4.18-3.36.82-6.16-2.54-6.44-5.62A7.58,7.58,0,0,1,156,170a11.07,11.07,0,0,1,10-.7c7.45,4.14,5.28,15.61,2.77,22Z"/><path d="M218,180.75c-9.71-.3-18.53-7.16-23.4-15.4-1.62-2.53-2.78-5.72-4.38-8.28-4.44-7.61-12.44-13.51-21.42-14-2.91-.1-6.33.32-8,3,2.5-6.25,12.52-5.44,17.73-3.48,7.88,2.76,13.94,9.39,17.11,17,4.25,9.75,11.79,18.17,22.41,21.18Z"/><path d="M193.8,147c-6.48-6.48-14.94-11.9-24.29-12-5.46,0-12.16,1.21-14.62,6.61-1.68,3.66-.75,8.74,1.76,12,2.34,3.4,9.43,4.11,10.71-.57-.06,4.28-5.68,5.63-9.06,4.34-4.75-1.62-7.2-7-7.48-11.72-.57-10.38,9.93-14.81,18.82-14.13,10.05.54,19.07,7.08,24.16,15.47Z"/><path d="M193.5,176.91c-6.35-.45-10.26-7.15-11.42-12.79a17.86,17.86,0,0,1-.13-6,21.63,21.63,0,0,1,1.55,2.54c3.14,5.59,5.41,11.62,10,16.22Z"/><path d="M320.68,99.74c0-.11,0-.13,0,0l0,.15c0,.11-.05.22-.08.32s-.11.44-.17.66c-.11.43-.22.87-.34,1.3s-.26.81-.35,1.26-.18.89-.28,1.33a.26.26,0,0,0,.46.2c.27-.35.53-.7.79-1.06a9.1,9.1,0,0,0,.73-1.29c.22-.4.43-.81.62-1.22l.29-.62.13-.31a.91.91,0,0,1,.07-.14l0-.08a1,1,0,1,0-1.84-.5Z"/><path d="M331.86,123c.11,0,.13,0,0,0l-.15,0-.33-.07-.66-.14-1.31-.31c-.45-.11-.82-.23-1.27-.31s-.89-.15-1.34-.24a.26.26,0,0,0-.19.47l1.09.76a10.91,10.91,0,0,0,1.31.69c.41.2.82.4,1.24.58l.63.27.31.13.14,0,.09,0a1,1,0,1,0,.44-1.86Z"/><path class="cls-4" d="M451.09,297.59a5.78,5.78,0,0,0-4.39-2.09,5.49,5.49,0,0,0-.06,11,6.41,6.41,0,0,0,4.61-2.27v1.68a6.93,6.93,0,0,1-4.65,1.78,6.67,6.67,0,0,1,.1-13.34,6.64,6.64,0,0,1,4.39,1.62Z"/><path class="cls-4" d="M464.28,284.59h1.25v12a4.25,4.25,0,0,1,3.9-2.27,4,4,0,0,1,3.52,1.77,6.15,6.15,0,0,1,.62,3.21v8h-1.24v-8a4.67,4.67,0,0,0-.5-2.55,2.71,2.71,0,0,0-2.5-1.25,3.32,3.32,0,0,0-3.11,1.78,6.9,6.9,0,0,0-.69,3.43v6.6h-1.25Z"/><path class="cls-4" d="M486.86,290.36a1.12,1.12,0,1,1,1.12,1.15A1.11,1.11,0,0,1,486.86,290.36Zm1.75,4.24v12.71h-1.25V294.6Z"/><path class="cls-4" d="M502.7,294.6H504v2a4.23,4.23,0,0,1,3.89-2.27,4,4,0,0,1,3.53,1.77,6.15,6.15,0,0,1,.62,3.21v8h-1.25v-8a4.67,4.67,0,0,0-.5-2.55,2.69,2.69,0,0,0-2.49-1.25,3.34,3.34,0,0,0-3.12,1.78,6.9,6.9,0,0,0-.68,3.43v6.6H502.7Z"/><path class="cls-4" d="M526.58,301.11a5.11,5.11,0,0,0,5,5.36,4.85,4.85,0,0,0,4.43-2.9l1.06.63a6.15,6.15,0,0,1-5.58,3.46c-4,0-6.27-2.93-6.27-6.64,0-4.43,3.06-6.7,6.18-6.7,3.43,0,6,2.74,6,6.79Zm9.57-1.18a4.77,4.77,0,0,0-4.7-4.43,4.85,4.85,0,0,0-4.77,4.43Z"/><path class="cls-4" d="M556.17,296.93A2.33,2.33,0,0,0,554,295.5a2,2,0,0,0-2.15,2c0,1.24,1,1.65,2.24,2.15a7,7,0,0,1,3.28,1.87,3,3,0,0,1,.65,2.05,3.89,3.89,0,0,1-4.15,4.06,4.35,4.35,0,0,1-4.39-3.37l1.21-.37a3.25,3.25,0,0,0,3.18,2.55,2.72,2.72,0,0,0,2.84-2.8c0-1.44-.9-2-2.84-2.75a6.31,6.31,0,0,1-2.77-1.68,2.65,2.65,0,0,1-.56-1.65,3.22,3.22,0,0,1,3.4-3.27,3.42,3.42,0,0,1,3.33,2.05Z"/><path class="cls-4" d="M571.26,301.11a5.11,5.11,0,0,0,5,5.36,4.85,4.85,0,0,0,4.43-2.9l1.06.63a6.15,6.15,0,0,1-5.58,3.46c-4,0-6.26-2.93-6.26-6.64,0-4.43,3-6.7,6.17-6.7,3.43,0,6,2.74,6,6.79Zm9.57-1.18a4.77,4.77,0,0,0-4.7-4.43,4.85,4.85,0,0,0-4.77,4.43Z"/><path class="cls-4" d="M612.3,294.6h1.24v1.65a3,3,0,0,1,2.81-1.93,3,3,0,0,1,1.34.31l-.62,1.12a1.49,1.49,0,0,0-.94-.25c-2.55,0-2.59,3.4-2.59,5v6.82H612.3Z"/><path class="cls-4" d="M630.51,301.11a5.11,5.11,0,0,0,5,5.36,4.84,4.84,0,0,0,4.42-2.9l1.06.63a6.15,6.15,0,0,1-5.58,3.46c-4,0-6.26-2.93-6.26-6.64,0-4.43,3-6.7,6.17-6.7,3.43,0,6,2.74,6,6.79Zm9.57-1.18a4.79,4.79,0,0,0-4.71-4.43,4.85,4.85,0,0,0-4.77,4.43Z"/><path class="cls-4" d="M660.1,296.93a2.34,2.34,0,0,0-2.22-1.43,2.05,2.05,0,0,0-2.15,2c0,1.24,1,1.65,2.25,2.15a7,7,0,0,1,3.27,1.87,3,3,0,0,1,.65,2.05,3.89,3.89,0,0,1-4.14,4.06,4.36,4.36,0,0,1-4.4-3.37l1.22-.37a3.23,3.23,0,0,0,3.18,2.55,2.72,2.72,0,0,0,2.83-2.8c0-1.44-.9-2-2.83-2.75a6.3,6.3,0,0,1-2.78-1.68,2.65,2.65,0,0,1-.56-1.65,3.23,3.23,0,0,1,3.4-3.27,3.43,3.43,0,0,1,3.34,2.05Z"/><path class="cls-4" d="M676,295.78v11.53h-1.25V295.78h-1.4V294.6h1.4V290H676v4.56h2.21v1.18Z"/><path class="cls-4" d="M700.69,294.6h1.25v12.71h-1.25V305a5.82,5.82,0,0,1-5,2.62c-3.33,0-6.2-2.53-6.2-6.7,0-3.93,2.49-6.64,6.2-6.64a5.79,5.79,0,0,1,5,2.49Zm-9.85,6.26c0,2.87,1.78,5.61,5,5.61s4.92-2.68,4.92-5.61a5,5,0,1,0-9.91,0Z"/><path class="cls-4" d="M717.28,294.6v7.66a4.91,4.91,0,0,0,.81,3.18,3.61,3.61,0,0,0,5,0,4.91,4.91,0,0,0,.81-3.18V294.6h1.25v8a5.44,5.44,0,0,1-1,3.49,5,5,0,0,1-7.23,0,5.5,5.5,0,0,1-1-3.49v-8Z"/><path class="cls-4" d="M739.29,294.6h1.25v1.65a3,3,0,0,1,2.81-1.93,3,3,0,0,1,1.34.31l-.63,1.12a1.43,1.43,0,0,0-.93-.25c-2.56,0-2.59,3.4-2.59,5v6.82h-1.25Z"/><path class="cls-4" d="M767,294.6h1.25v12.71H767V305a5.81,5.81,0,0,1-5,2.62c-3.34,0-6.21-2.53-6.21-6.7,0-3.93,2.5-6.64,6.21-6.64a5.78,5.78,0,0,1,5,2.49Zm-9.85,6.26c0,2.87,1.78,5.61,5,5.61s4.92-2.68,4.92-5.61a5,5,0,1,0-9.91,0Z"/><path class="cls-4" d="M782.35,294.6h1.25v2a4.25,4.25,0,0,1,3.9-2.27,4,4,0,0,1,3.52,1.77,6.15,6.15,0,0,1,.62,3.21v8H790.4v-8a4.67,4.67,0,0,0-.5-2.55,2.7,2.7,0,0,0-2.49-1.25,3.32,3.32,0,0,0-3.12,1.78,6.9,6.9,0,0,0-.69,3.43v6.6h-1.25Z"/><path class="cls-4" d="M807.08,295.78v11.53h-1.25V295.78h-1.4V294.6h1.4V290h1.25v4.56h2.21v1.18Z"/><path class="cls-4" d="M438.66,260.83a9.08,9.08,0,0,0,4.23-3.15c1.16-1.6,1.7-4.67,1.7-9.66V195.81c0-5.59-.71-8.93-2.23-10.48a9.48,9.48,0,0,0-3.64-2.32H466c12.8,0,22.63,1.34,29.2,4A33.14,33.14,0,0,1,511,200.1a38.23,38.23,0,0,1,6,21.4c0,10.81-3.6,19.95-10.69,27.18-8,8.06-20.38,12.15-36.79,12.15Zm30.47-3.17c10.41,0,19.18-1.43,26.07-8.19s10.32-15.94,10.32-27.37-3.47-20.74-10.33-27.44-15.82-8.12-26.58-8.12H453.73v71.14Z"/><path class="cls-4" d="M545.34,260.83a8.24,8.24,0,0,0,3.66-2.72c.74-1,1.73-3.05,1.73-10.09V195.81c0-5.94-.51-7.81-.89-8.7a6.89,6.89,0,0,0-3.09-3.27A13.22,13.22,0,0,0,545,183h19.66a8.24,8.24,0,0,0-3.64,2.72c-.76.93-1.8,3-1.8,10.08V248c0,5.95.52,7.82.9,8.71a6.76,6.76,0,0,0,3.15,3.27,13.54,13.54,0,0,0,1.77.83Z"/><path class="cls-4" d="M613.65,260.83a8.14,8.14,0,0,0,3.77-2.95c.67-.95,1.58-3,1.58-9.56V185.07H607.78c-4,0-6.82.31-8.56.93a12.62,12.62,0,0,0-6,4.84,14.42,14.42,0,0,0-1.87,3.88l.59-11.71H655l.57,12.15a13.27,13.27,0,0,0-1-2.55,13.53,13.53,0,0,0-5.5-5.72,18.74,18.74,0,0,0-8.82-1.82H627.43v63.25c0,5.47.63,8.74,2,10.29a8.34,8.34,0,0,0,3.25,2.22Z"/><path class="cls-4" d="M720.9,260.83a8.35,8.35,0,0,0,2.22-1.09,5.27,5.27,0,0,0,1.76-2.09,5.93,5.93,0,0,0,.51-2.47c0-2-.79-4.87-2.43-8.87l-5.14-12.54h-32.4l-5.72,13.66c-1.41,3.41-2.1,5.9-2.1,7.63a5.65,5.65,0,0,0,2.24,4.45,7.52,7.52,0,0,0,2.87,1.32H667a9,9,0,0,0,3.79-1.95,19.32,19.32,0,0,0,3.37-4.63,75.84,75.84,0,0,0,3.53-7.48L705,181.16h.09l27,66.31c2.31,5.71,4.4,9.34,6.37,11.1a11.22,11.22,0,0,0,3.95,2.26ZM686,232.36h31.47l-15.54-38Z"/><path class="cls-4" d="M774,260.83a7.64,7.64,0,0,0,3.5-2.95c.63-.95,1.47-3,1.47-9.56V228.74l-20.85-34.23c-1.21-2-2.26-3.68-3.12-4.92a31.77,31.77,0,0,0-2-2.72,8.76,8.76,0,0,0-2.28-1.91c-.91-.59-2.06-1.24-3.41-2h22.46a11.3,11.3,0,0,0-1.39.7,5.93,5.93,0,0,0-2.89,5.25c0,1.11.37,3.21,3.61,8.57l16.86,28,15.91-26.88c2.39-4,3.55-7,3.55-9.15v-.15a10.78,10.78,0,0,0-.58-2.72,6.07,6.07,0,0,0-3.49-3.62H818c-.49.2-1,.43-1.58.7a16.7,16.7,0,0,0-5.5,4.29,35.22,35.22,0,0,0-2.61,3.54c-.94,1.42-2,3.1-3.14,5l-18.35,31.07v20.7c0,5.48.61,8.75,1.91,10.31a7.65,7.65,0,0,0,3,2.2Z"/></svg>